<svg xmlns="http://www.w3.org/2000/svg" viewBox="0 0 200 200" width="200" height="200" role="img" aria-label="Dr. Shy — cartoon bunny portrait">
  <defs>
    <radialGradient id="bg" cx="50%" cy="40%" r="70%">
      <stop offset="0%" stop-color="oklch(0.95 0.04 70)"></stop>
      <stop offset="100%" stop-color="oklch(0.92 0.05 60)"></stop>
    </radialGradient>
    <linearGradient id="fur" x1="0" y1="0" x2="0" y2="1">
      <stop offset="0%" stop-color="#fdfcfa"></stop>
      <stop offset="100%" stop-color="#efe9e0"></stop>
    </linearGradient>
    <linearGradient id="ear" x1="0" y1="0" x2="0" y2="1">
      <stop offset="0%" stop-color="#fdfcfa"></stop>
      <stop offset="100%" stop-color="#e8e0d3"></stop>
    </linearGradient>
    <radialGradient id="cheek" cx="50%" cy="50%" r="50%">
      <stop offset="0%" stop-color="oklch(0.78 0.13 30 / 0.7)"></stop>
      <stop offset="100%" stop-color="oklch(0.78 0.13 30 / 0)"></stop>
    </radialGradient>
    <radialGradient id="eye" cx="35%" cy="35%" r="70%">
      <stop offset="0%" stop-color="#3a2a20"></stop>
      <stop offset="100%" stop-color="#1a1410"></stop>
    </radialGradient>
  </defs>

  
  <circle cx="100" cy="100" r="100" fill="url(#bg)"></circle>

  
  <circle cx="32" cy="50" r="1.6" fill="oklch(0.6 0.13 35)" opacity="0.6"></circle>
  <circle cx="170" cy="65" r="1.2" fill="oklch(0.6 0.13 35)" opacity="0.5"></circle>
  <circle cx="160" cy="155" r="1.4" fill="oklch(0.6 0.13 35)" opacity="0.55"></circle>
  <circle cx="42" cy="160" r="1.2" fill="oklch(0.6 0.13 35)" opacity="0.5"></circle>

  
  <g transform="translate(100 92)">
    
    <ellipse cx="-26" cy="-50" rx="11" ry="34" fill="url(#ear)" stroke="#d9cfbf" stroke-width="1.2" transform="rotate(-12 -26 -50)"></ellipse>
    <ellipse cx="-26" cy="-46" rx="5" ry="22" fill="oklch(0.82 0.06 30)" opacity="0.55" transform="rotate(-12 -26 -50)"></ellipse>
    
    <ellipse cx="26" cy="-50" rx="11" ry="34" fill="url(#ear)" stroke="#d9cfbf" stroke-width="1.2" transform="rotate(12 26 -50)"></ellipse>
    <ellipse cx="26" cy="-46" rx="5" ry="22" fill="oklch(0.82 0.06 30)" opacity="0.55" transform="rotate(12 26 -50)"></ellipse>
  </g>

  
  <ellipse cx="100" cy="108" rx="52" ry="48" fill="url(#fur)" stroke="#d9cfbf" stroke-width="1.4"></ellipse>

  
  <circle cx="68" cy="118" r="11" fill="url(#cheek)"></circle>
  <circle cx="132" cy="118" r="11" fill="url(#cheek)"></circle>

  
  <g>
    
    <ellipse cx="82" cy="102" rx="6.5" ry="7.5" fill="url(#eye)"></ellipse>
    <circle cx="84" cy="99.5" r="2.2" fill="#fff"></circle>
    <circle cx="80" cy="104" r="0.9" fill="#fff" opacity="0.8"></circle>
    
    <ellipse cx="118" cy="102" rx="6.5" ry="7.5" fill="url(#eye)"></ellipse>
    <circle cx="120" cy="99.5" r="2.2" fill="#fff"></circle>
    <circle cx="116" cy="104" r="0.9" fill="#fff" opacity="0.8"></circle>
  </g>

  
  <path d="M74 90 Q82 86 90 90" stroke="#7a6a5a" stroke-width="1.6" fill="none" stroke-linecap="round"></path>
  <path d="M110 90 Q118 86 126 90" stroke="#7a6a5a" stroke-width="1.6" fill="none" stroke-linecap="round"></path>

  
  <path d="M97 118 Q100 115 103 118 Q103 122 100 123 Q97 122 97 118 Z" fill="oklch(0.7 0.14 25)"></path>

  
  <path d="M100 124 L100 130" stroke="#7a6a5a" stroke-width="1.4" fill="none" stroke-linecap="round"></path>
  <path d="M100 130 Q92 138 86 132" stroke="#7a6a5a" stroke-width="1.6" fill="none" stroke-linecap="round"></path>
  <path d="M100 130 Q108 138 114 132" stroke="#7a6a5a" stroke-width="1.6" fill="none" stroke-linecap="round"></path>
  
  <rect x="98.5" y="130.5" width="3" height="3.5" rx="0.6" fill="#fff" stroke="#d9cfbf" stroke-width="0.5"></rect>

  
  <g stroke="#a99a88" stroke-width="0.9" stroke-linecap="round" opacity="0.8">
    <line x1="58" y1="120" x2="46" y2="116"></line>
    <line x1="58" y1="124" x2="46" y2="124"></line>
    <line x1="58" y1="128" x2="46" y2="132"></line>
    <line x1="142" y1="120" x2="154" y2="116"></line>
    <line x1="142" y1="124" x2="154" y2="124"></line>
    <line x1="142" y1="128" x2="154" y2="132"></line>
  </g>

  
  <g stroke="oklch(0.4 0.04 60)" stroke-width="1.4" fill="none" opacity="0.75">
    <circle cx="82" cy="102" r="11"></circle>
    <circle cx="118" cy="102" r="11"></circle>
    <line x1="93" y1="102" x2="107" y2="102"></line>
  </g>

  
  <g transform="translate(100 174)">
    <rect x="-22" y="-9" width="44" height="18" rx="9" fill="#fff" stroke="#d9cfbf" stroke-width="1"></rect>
    <text x="0" y="4" text-anchor="middle" font-family="ui-monospace, &#39;JetBrains Mono&#39;, Menlo, monospace" font-size="9" fill="oklch(0.4 0.04 60)" letter-spacing="1">DR. SHY</text>
  </g>
</svg>