<svg viewBox="0 0 1060 520" xmlns="http://www.w3.org/2000/svg" font-family="-apple-system,BlinkMacSystemFont,'SF Pro Display','SF Pro Text',Inter,sans-serif" role="img" aria-label="fig06-olddog">
<defs><filter id="ds-fig06-olddog" x="-20%" y="-20%" width="140%" height="140%"><feDropShadow dx="0" dy="4" stdDeviation="7" flood-color="#000" flood-opacity="0.10"/></filter></defs>
<rect width="1060" height="520" rx="26" fill="#F5F5F7"/>
<rect x="28" y="26" width="691.5" height="40" rx="10" fill="#1D1D1F"/><text x="46" y="52" font-size="17" font-weight="700" fill="#FFFFFF">Best Paper - three old words, one insight (S4, ByteDance)</text>
<text x="80" y="104" font-size="13.5" font-weight="700" fill="#1D1D1F" text-anchor="start">the insight: storage is reactive, but the training workload is DETERMINISTIC - so tell storage the future</text>
<rect x="80" y="132" width="430" height="96" rx="14" fill="#FFF3E3" stroke="#E2E2E7" stroke-width="1" filter="url(#ds-fig06-olddog)"/>
<circle cx="80" cy="132" r="14" fill="#FF9500" stroke="#FFFFFF" stroke-width="2.5"/><text x="80" y="136.5" font-size="13" font-weight="800" fill="#FFFFFF" text-anchor="middle">1</text>
<text x="106" y="160" font-size="14.5" font-weight="800" fill="#1D1D1F" text-anchor="start">WAN checkpoint pulls</text>
<text x="106" y="182" font-size="11.5" font-weight="400" fill="#6E6E73" text-anchor="start">&gt;60% of tensors &lt;16 KB: RTT-bound; 2.6M GPU-h wasted</text>
<text x="106" y="198" font-size="11.5" font-weight="400" fill="#6E6E73" text-anchor="start"> = half of what eval saves</text>
<line x1="516" y1="180.0" x2="555.0" y2="180.0" stroke="#1D1D1F" stroke-width="2.5"/><polygon points="566,180.0 555.0,185.5 555.0,174.5" fill="#1D1D1F"/>
<rect x="572" y="132" width="408" height="96" rx="14" fill="#FFFFFF" stroke="#E2E2E7" stroke-width="1" filter="url(#ds-fig06-olddog)"/>
<rect x="590" y="148" width="180.4" height="22" rx="11" fill="#007AFF"/><text x="680.2" y="163" font-size="11.5" font-weight="700" fill="#FFFFFF" text-anchor="middle">predictive replication</text>
<text x="590" y="190" font-size="12.5" font-weight="400" fill="#6E6E73" text-anchor="start">shards copied before the eval reads them</text>
<rect x="80" y="240" width="430" height="96" rx="14" fill="#FFF3E3" stroke="#E2E2E7" stroke-width="1" filter="url(#ds-fig06-olddog)"/>
<circle cx="80" cy="240" r="14" fill="#FF9500" stroke="#FFFFFF" stroke-width="2.5"/><text x="80" y="244.5" font-size="13" font-weight="800" fill="#FFFFFF" text-anchor="middle">2</text>
<text x="106" y="268" font-size="14.5" font-weight="800" fill="#1D1D1F" text-anchor="start">restart storms</text>
<text x="106" y="290" font-size="11.5" font-weight="400" fill="#6E6E73" text-anchor="start">top 5% of files draw 38.8% of load; windows of tens </text>
<text x="106" y="306" font-size="11.5" font-weight="400" fill="#6E6E73" text-anchor="start">of seconds</text>
<line x1="516" y1="288.0" x2="555.0" y2="288.0" stroke="#1D1D1F" stroke-width="2.5"/><polygon points="566,288.0 555.0,293.5 555.0,282.5" fill="#1D1D1F"/>
<rect x="572" y="240" width="408" height="96" rx="14" fill="#FFFFFF" stroke="#E2E2E7" stroke-width="1" filter="url(#ds-fig06-olddog)"/>
<rect x="590" y="256" width="216.4" height="22" rx="11" fill="#007AFF"/><text x="698.2" y="271" font-size="11.5" font-weight="700" fill="#FFFFFF" text-anchor="middle">hinted replication 3 -&gt; 128</text>
<text x="590" y="298" font-size="12.5" font-weight="400" fill="#6E6E73" text-anchor="start">framework declares hot files at submit time</text>
<rect x="80" y="348" width="430" height="96" rx="14" fill="#FFF3E3" stroke="#E2E2E7" stroke-width="1" filter="url(#ds-fig06-olddog)"/>
<circle cx="80" cy="348" r="14" fill="#FF9500" stroke="#FFFFFF" stroke-width="2.5"/><text x="80" y="352.5" font-size="13" font-weight="800" fill="#FFFFFF" text-anchor="middle">3</text>
<text x="106" y="376" font-size="14.5" font-weight="800" fill="#1D1D1F" text-anchor="start">multimodal transforms</text>
<text x="106" y="398" font-size="11.5" font-weight="400" fill="#6E6E73" text-anchor="start">94.4% of data-loading time burns training-host CPUs</text>
<text x="106" y="414" font-size="11.5" font-weight="400" fill="#6E6E73" text-anchor="start"></text>
<line x1="516" y1="396.0" x2="555.0" y2="396.0" stroke="#1D1D1F" stroke-width="2.5"/><polygon points="566,396.0 555.0,401.5 555.0,390.5" fill="#1D1D1F"/>
<rect x="572" y="348" width="408" height="96" rx="14" fill="#FFFFFF" stroke="#E2E2E7" stroke-width="1" filter="url(#ds-fig06-olddog)"/>
<rect x="590" y="364" width="194.8" height="22" rx="11" fill="#007AFF"/><text x="687.4" y="379" font-size="11.5" font-weight="700" fill="#FFFFFF" text-anchor="middle">pushdown to storage CPUs</text>
<text x="590" y="406" font-size="12.5" font-weight="400" fill="#6E6E73" text-anchor="start">storage cores at 20-30% util. do the decode</text>
<text x="80" y="476" font-size="13.5" font-weight="700" fill="#34C759" text-anchor="start">eval waste per regression: 16,800 -&gt; 4,000 GPU-hours; startup loads -40.8%; transform stalls -63.2% - and HDFS stays.</text>
</svg>